%TF.GenerationSoftware,KiCad,Pcbnew,(5.1.9)-1*%
%TF.CreationDate,2021-01-09T16:59:08-05:00*%
%TF.ProjectId,jouleThief,6a6f756c-6554-4686-9965-662e6b696361,rev?*%
%TF.SameCoordinates,PX7e341b0PY5c0c740*%
%TF.FileFunction,Soldermask,Top*%
%TF.FilePolarity,Negative*%
%FSLAX46Y46*%
G04 Gerber Fmt 4.6, Leading zero omitted, Abs format (unit mm)*
G04 Created by KiCad (PCBNEW (5.1.9)-1) date 2021-01-09 16:59:08*
%MOMM*%
%LPD*%
G01*
G04 APERTURE LIST*
%ADD10R,0.800000X1.900000*%
%ADD11O,2.500000X2.700000*%
G04 APERTURE END LIST*
D10*
%TO.C,Q1*%
X8062000Y4294000D03*
X6162000Y4294000D03*
X7112000Y1294000D03*
%TD*%
%TO.C,L1*%
G36*
G01*
X13030000Y1974001D02*
X13030000Y1073999D01*
G75*
G02*
X12780001Y824000I-249999J0D01*
G01*
X12129999Y824000D01*
G75*
G02*
X11880000Y1073999I0J249999D01*
G01*
X11880000Y1974001D01*
G75*
G02*
X12129999Y2224000I249999J0D01*
G01*
X12780001Y2224000D01*
G75*
G02*
X13030000Y1974001I0J-249999D01*
G01*
G37*
G36*
G01*
X10980000Y1974001D02*
X10980000Y1073999D01*
G75*
G02*
X10730001Y824000I-249999J0D01*
G01*
X10079999Y824000D01*
G75*
G02*
X9830000Y1073999I0J249999D01*
G01*
X9830000Y1974001D01*
G75*
G02*
X10079999Y2224000I249999J0D01*
G01*
X10730001Y2224000D01*
G75*
G02*
X10980000Y1974001I0J-249999D01*
G01*
G37*
%TD*%
%TO.C,R2*%
G36*
G01*
X12356000Y4201000D02*
X12356000Y5451000D01*
G75*
G02*
X12606000Y5701000I250000J0D01*
G01*
X13406000Y5701000D01*
G75*
G02*
X13656000Y5451000I0J-250000D01*
G01*
X13656000Y4201000D01*
G75*
G02*
X13406000Y3951000I-250000J0D01*
G01*
X12606000Y3951000D01*
G75*
G02*
X12356000Y4201000I0J250000D01*
G01*
G37*
G36*
G01*
X9256000Y4201000D02*
X9256000Y5451000D01*
G75*
G02*
X9506000Y5701000I250000J0D01*
G01*
X10306000Y5701000D01*
G75*
G02*
X10556000Y5451000I0J-250000D01*
G01*
X10556000Y4201000D01*
G75*
G02*
X10306000Y3951000I-250000J0D01*
G01*
X9506000Y3951000D01*
G75*
G02*
X9256000Y4201000I0J250000D01*
G01*
G37*
%TD*%
%TO.C,C1*%
G36*
G01*
X13693500Y8270001D02*
X13693500Y6969999D01*
G75*
G02*
X13443501Y6720000I-249999J0D01*
G01*
X12618499Y6720000D01*
G75*
G02*
X12368500Y6969999I0J249999D01*
G01*
X12368500Y8270001D01*
G75*
G02*
X12618499Y8520000I249999J0D01*
G01*
X13443501Y8520000D01*
G75*
G02*
X13693500Y8270001I0J-249999D01*
G01*
G37*
G36*
G01*
X10568500Y8270001D02*
X10568500Y6969999D01*
G75*
G02*
X10318501Y6720000I-249999J0D01*
G01*
X9493499Y6720000D01*
G75*
G02*
X9243500Y6969999I0J249999D01*
G01*
X9243500Y8270001D01*
G75*
G02*
X9493499Y8520000I249999J0D01*
G01*
X10318501Y8520000D01*
G75*
G02*
X10568500Y8270001I0J-249999D01*
G01*
G37*
%TD*%
D11*
%TO.C,D1*%
X2540000Y8382000D03*
G36*
G01*
X3345000Y1952000D02*
X1735000Y1952000D01*
G75*
G02*
X1290000Y2397000I0J445000D01*
G01*
X1290000Y4207000D01*
G75*
G02*
X1735000Y4652000I445000J0D01*
G01*
X3345000Y4652000D01*
G75*
G02*
X3790000Y4207000I0J-445000D01*
G01*
X3790000Y2397000D01*
G75*
G02*
X3345000Y1952000I-445000J0D01*
G01*
G37*
%TD*%
%TO.C,D2*%
G36*
G01*
X16881000Y3605500D02*
X15631000Y3605500D01*
G75*
G02*
X15381000Y3855500I0J250000D01*
G01*
X15381000Y4780500D01*
G75*
G02*
X15631000Y5030500I250000J0D01*
G01*
X16881000Y5030500D01*
G75*
G02*
X17131000Y4780500I0J-250000D01*
G01*
X17131000Y3855500D01*
G75*
G02*
X16881000Y3605500I-250000J0D01*
G01*
G37*
G36*
G01*
X16881000Y6580500D02*
X15631000Y6580500D01*
G75*
G02*
X15381000Y6830500I0J250000D01*
G01*
X15381000Y7755500D01*
G75*
G02*
X15631000Y8005500I250000J0D01*
G01*
X16881000Y8005500D01*
G75*
G02*
X17131000Y7755500I0J-250000D01*
G01*
X17131000Y6830500D01*
G75*
G02*
X16881000Y6580500I-250000J0D01*
G01*
G37*
%TD*%
D10*
%TO.C,Q2*%
X7051000Y9858000D03*
X8001000Y6858000D03*
X6101000Y6858000D03*
%TD*%
%TO.C,R1*%
G36*
G01*
X10133500Y9414500D02*
X10133500Y9889500D01*
G75*
G02*
X10371000Y10127000I237500J0D01*
G01*
X10871000Y10127000D01*
G75*
G02*
X11108500Y9889500I0J-237500D01*
G01*
X11108500Y9414500D01*
G75*
G02*
X10871000Y9177000I-237500J0D01*
G01*
X10371000Y9177000D01*
G75*
G02*
X10133500Y9414500I0J237500D01*
G01*
G37*
G36*
G01*
X11958500Y9414500D02*
X11958500Y9889500D01*
G75*
G02*
X12196000Y10127000I237500J0D01*
G01*
X12696000Y10127000D01*
G75*
G02*
X12933500Y9889500I0J-237500D01*
G01*
X12933500Y9414500D01*
G75*
G02*
X12696000Y9177000I-237500J0D01*
G01*
X12196000Y9177000D01*
G75*
G02*
X11958500Y9414500I0J237500D01*
G01*
G37*
%TD*%
M02*
