%TF.GenerationSoftware,KiCad,Pcbnew,(5.1.9)-1*%
%TF.CreationDate,2021-01-09T16:59:08-05:00*%
%TF.ProjectId,jouleThief,6a6f756c-6554-4686-9965-662e6b696361,rev?*%
%TF.SameCoordinates,PX7e341b0PY5c0c740*%
%TF.FileFunction,Legend,Top*%
%TF.FilePolarity,Positive*%
%FSLAX46Y46*%
G04 Gerber Fmt 4.6, Leading zero omitted, Abs format (unit mm)*
G04 Created by KiCad (PCBNEW (5.1.9)-1) date 2021-01-09 16:59:08*
%MOMM*%
%LPD*%
G01*
G04 APERTURE LIST*
%ADD10C,0.120000*%
%ADD11C,0.150000*%
G04 APERTURE END LIST*
D10*
%TO.C,Q1*%
X5532000Y2034000D02*
X5532000Y3494000D01*
X8692000Y2034000D02*
X8692000Y5194000D01*
X8692000Y2034000D02*
X7762000Y2034000D01*
X5532000Y2034000D02*
X6462000Y2034000D01*
%TO.C,L1*%
X11691252Y2234000D02*
X11168748Y2234000D01*
X11691252Y814000D02*
X11168748Y814000D01*
%TO.C,R2*%
X10728936Y5736000D02*
X12183064Y5736000D01*
X10728936Y3916000D02*
X12183064Y3916000D01*
%TO.C,C1*%
X12179752Y8530000D02*
X10757248Y8530000D01*
X12179752Y6710000D02*
X10757248Y6710000D01*
%TO.C,D1*%
X3500000Y3382000D02*
X3500000Y2462000D01*
X1580000Y3382000D02*
X1580000Y2462000D01*
X280000Y8252000D02*
X1480000Y8252000D01*
X280000Y3382000D02*
X280000Y8252000D01*
X4800000Y8252000D02*
X4800000Y3382000D01*
X3600000Y8252000D02*
X4800000Y8252000D01*
X280000Y3382000D02*
X1580000Y3382000D01*
X3500000Y3382000D02*
X4800000Y3382000D01*
%TO.C,D2*%
X17391000Y3345500D02*
X17391000Y7405500D01*
X15121000Y3345500D02*
X17391000Y3345500D01*
X15121000Y7405500D02*
X15121000Y3345500D01*
%TO.C,Q2*%
X8631000Y9118000D02*
X7701000Y9118000D01*
X5471000Y9118000D02*
X6401000Y9118000D01*
X5471000Y9118000D02*
X5471000Y5958000D01*
X8631000Y9118000D02*
X8631000Y7658000D01*
%TO.C,R1*%
X11278776Y9129500D02*
X11788224Y9129500D01*
X11278776Y10174500D02*
X11788224Y10174500D01*
%TO.C,Q1*%
D11*
X10159619Y2698762D02*
X10112000Y2603524D01*
X10016761Y2508286D01*
X9873904Y2365429D01*
X9826285Y2270191D01*
X9826285Y2174953D01*
X10064380Y2222572D02*
X10016761Y2127334D01*
X9921523Y2032096D01*
X9731047Y1984477D01*
X9397714Y1984477D01*
X9207238Y2032096D01*
X9112000Y2127334D01*
X9064380Y2222572D01*
X9064380Y2413048D01*
X9112000Y2508286D01*
X9207238Y2603524D01*
X9397714Y2651143D01*
X9731047Y2651143D01*
X9921523Y2603524D01*
X10016761Y2508286D01*
X10064380Y2413048D01*
X10064380Y2222572D01*
X10064380Y3603524D02*
X10064380Y3032096D01*
X10064380Y3317810D02*
X9064380Y3317810D01*
X9207238Y3222572D01*
X9302476Y3127334D01*
X9350095Y3032096D01*
%TO.C,L1*%
X11263333Y-578380D02*
X10787142Y-578380D01*
X10787142Y421620D01*
X12120476Y-578380D02*
X11549047Y-578380D01*
X11834761Y-578380D02*
X11834761Y421620D01*
X11739523Y278762D01*
X11644285Y183524D01*
X11549047Y135905D01*
%TO.C,R2*%
X11289333Y5803620D02*
X10956000Y6279810D01*
X10717904Y5803620D02*
X10717904Y6803620D01*
X11098857Y6803620D01*
X11194095Y6756000D01*
X11241714Y6708381D01*
X11289333Y6613143D01*
X11289333Y6470286D01*
X11241714Y6375048D01*
X11194095Y6327429D01*
X11098857Y6279810D01*
X10717904Y6279810D01*
X11670285Y6708381D02*
X11717904Y6756000D01*
X11813142Y6803620D01*
X12051238Y6803620D01*
X12146476Y6756000D01*
X12194095Y6708381D01*
X12241714Y6613143D01*
X12241714Y6517905D01*
X12194095Y6375048D01*
X11622666Y5803620D01*
X12241714Y5803620D01*
%TO.C,C1*%
X11301833Y5412858D02*
X11254214Y5365239D01*
X11111357Y5317620D01*
X11016119Y5317620D01*
X10873261Y5365239D01*
X10778023Y5460477D01*
X10730404Y5555715D01*
X10682785Y5746191D01*
X10682785Y5889048D01*
X10730404Y6079524D01*
X10778023Y6174762D01*
X10873261Y6270000D01*
X11016119Y6317620D01*
X11111357Y6317620D01*
X11254214Y6270000D01*
X11301833Y6222381D01*
X12254214Y5317620D02*
X11682785Y5317620D01*
X11968500Y5317620D02*
X11968500Y6317620D01*
X11873261Y6174762D01*
X11778023Y6079524D01*
X11682785Y6031905D01*
%TO.C,D1*%
X-177620Y5103905D02*
X-1177620Y5103905D01*
X-1177620Y5342000D01*
X-1130000Y5484858D01*
X-1034762Y5580096D01*
X-939524Y5627715D01*
X-749048Y5675334D01*
X-606191Y5675334D01*
X-415715Y5627715D01*
X-320477Y5580096D01*
X-225239Y5484858D01*
X-177620Y5342000D01*
X-177620Y5103905D01*
X-177620Y6627715D02*
X-177620Y6056286D01*
X-177620Y6342000D02*
X-1177620Y6342000D01*
X-1034762Y6246762D01*
X-939524Y6151524D01*
X-891905Y6056286D01*
%TO.C,D2*%
X14888380Y5067405D02*
X13888380Y5067405D01*
X13888380Y5305500D01*
X13936000Y5448358D01*
X14031238Y5543596D01*
X14126476Y5591215D01*
X14316952Y5638834D01*
X14459809Y5638834D01*
X14650285Y5591215D01*
X14745523Y5543596D01*
X14840761Y5448358D01*
X14888380Y5305500D01*
X14888380Y5067405D01*
X13983619Y6019786D02*
X13936000Y6067405D01*
X13888380Y6162643D01*
X13888380Y6400739D01*
X13936000Y6495977D01*
X13983619Y6543596D01*
X14078857Y6591215D01*
X14174095Y6591215D01*
X14316952Y6543596D01*
X14888380Y5972167D01*
X14888380Y6591215D01*
%TO.C,Q2*%
X5098619Y8262762D02*
X5051000Y8167524D01*
X4955761Y8072286D01*
X4812904Y7929429D01*
X4765285Y7834191D01*
X4765285Y7738953D01*
X5003380Y7786572D02*
X4955761Y7691334D01*
X4860523Y7596096D01*
X4670047Y7548477D01*
X4336714Y7548477D01*
X4146238Y7596096D01*
X4051000Y7691334D01*
X4003380Y7786572D01*
X4003380Y7977048D01*
X4051000Y8072286D01*
X4146238Y8167524D01*
X4336714Y8215143D01*
X4670047Y8215143D01*
X4860523Y8167524D01*
X4955761Y8072286D01*
X5003380Y7977048D01*
X5003380Y7786572D01*
X4098619Y8596096D02*
X4051000Y8643715D01*
X4003380Y8738953D01*
X4003380Y8977048D01*
X4051000Y9072286D01*
X4098619Y9119905D01*
X4193857Y9167524D01*
X4289095Y9167524D01*
X4431952Y9119905D01*
X5003380Y8548477D01*
X5003380Y9167524D01*
%TO.C,R1*%
X11366833Y10629620D02*
X11033500Y11105810D01*
X10795404Y10629620D02*
X10795404Y11629620D01*
X11176357Y11629620D01*
X11271595Y11582000D01*
X11319214Y11534381D01*
X11366833Y11439143D01*
X11366833Y11296286D01*
X11319214Y11201048D01*
X11271595Y11153429D01*
X11176357Y11105810D01*
X10795404Y11105810D01*
X12319214Y10629620D02*
X11747785Y10629620D01*
X12033500Y10629620D02*
X12033500Y11629620D01*
X11938261Y11486762D01*
X11843023Y11391524D01*
X11747785Y11343905D01*
%TD*%
M02*
