%TF.GenerationSoftware,KiCad,Pcbnew,(5.1.7)-1*%
%TF.CreationDate,2021-01-07T00:22:32-05:00*%
%TF.ProjectId,bpw,6270772e-6b69-4636-9164-5f7063625858,rev?*%
%TF.SameCoordinates,Original*%
%TF.FileFunction,Legend,Bot*%
%TF.FilePolarity,Positive*%
%FSLAX46Y46*%
G04 Gerber Fmt 4.6, Leading zero omitted, Abs format (unit mm)*
G04 Created by KiCad (PCBNEW (5.1.7)-1) date 2021-01-07 00:22:32*
%MOMM*%
%LPD*%
G01*
G04 APERTURE LIST*
%ADD10C,0.120000*%
%ADD11C,0.150000*%
G04 APERTURE END LIST*
D10*
%TO.C,D1*%
X110640000Y-77550000D02*
X109340000Y-77550000D01*
X113860000Y-77550000D02*
X112560000Y-77550000D01*
X110540000Y-72680000D02*
X109340000Y-72680000D01*
X109340000Y-72680000D02*
X109340000Y-77550000D01*
X113860000Y-77550000D02*
X113860000Y-72680000D01*
X113860000Y-72680000D02*
X112660000Y-72680000D01*
X112560000Y-77550000D02*
X112560000Y-78470000D01*
X110640000Y-77550000D02*
X110640000Y-78470000D01*
%TO.C,D2*%
X120760000Y-72710000D02*
X120760000Y-71790000D01*
X118840000Y-72710000D02*
X118840000Y-71790000D01*
X117540000Y-77580000D02*
X118740000Y-77580000D01*
X117540000Y-72710000D02*
X117540000Y-77580000D01*
X122060000Y-77580000D02*
X122060000Y-72710000D01*
X120860000Y-77580000D02*
X122060000Y-77580000D01*
X117540000Y-72710000D02*
X118840000Y-72710000D01*
X120760000Y-72710000D02*
X122060000Y-72710000D01*
%TO.C,D1*%
D11*
X114317619Y-75828095D02*
X115317619Y-75828095D01*
X115317619Y-75590000D01*
X115270000Y-75447142D01*
X115174761Y-75351904D01*
X115079523Y-75304285D01*
X114889047Y-75256666D01*
X114746190Y-75256666D01*
X114555714Y-75304285D01*
X114460476Y-75351904D01*
X114365238Y-75447142D01*
X114317619Y-75590000D01*
X114317619Y-75828095D01*
X114317619Y-74304285D02*
X114317619Y-74875714D01*
X114317619Y-74590000D02*
X115317619Y-74590000D01*
X115174761Y-74685238D01*
X115079523Y-74780476D01*
X115031904Y-74875714D01*
%TO.C,D2*%
X117082380Y-74431904D02*
X116082380Y-74431904D01*
X116082380Y-74670000D01*
X116130000Y-74812857D01*
X116225238Y-74908095D01*
X116320476Y-74955714D01*
X116510952Y-75003333D01*
X116653809Y-75003333D01*
X116844285Y-74955714D01*
X116939523Y-74908095D01*
X117034761Y-74812857D01*
X117082380Y-74670000D01*
X117082380Y-74431904D01*
X116177619Y-75384285D02*
X116130000Y-75431904D01*
X116082380Y-75527142D01*
X116082380Y-75765238D01*
X116130000Y-75860476D01*
X116177619Y-75908095D01*
X116272857Y-75955714D01*
X116368095Y-75955714D01*
X116510952Y-75908095D01*
X117082380Y-75336666D01*
X117082380Y-75955714D01*
%TD*%
M02*
