%TF.GenerationSoftware,KiCad,Pcbnew,(5.1.7)-1*%
%TF.CreationDate,2021-01-07T00:22:32-05:00*%
%TF.ProjectId,bpw,6270772e-6b69-4636-9164-5f7063625858,rev?*%
%TF.SameCoordinates,Original*%
%TF.FileFunction,Paste,Top*%
%TF.FilePolarity,Positive*%
%FSLAX46Y46*%
G04 Gerber Fmt 4.6, Leading zero omitted, Abs format (unit mm)*
G04 Created by KiCad (PCBNEW (5.1.7)-1) date 2021-01-07 00:22:32*
%MOMM*%
%LPD*%
G01*
G04 APERTURE LIST*
%ADD10R,0.900000X0.800000*%
G04 APERTURE END LIST*
%TO.C,D5*%
G36*
G01*
X116547500Y-78415000D02*
X116072500Y-78415000D01*
G75*
G02*
X115835000Y-78177500I0J237500D01*
G01*
X115835000Y-77602500D01*
G75*
G02*
X116072500Y-77365000I237500J0D01*
G01*
X116547500Y-77365000D01*
G75*
G02*
X116785000Y-77602500I0J-237500D01*
G01*
X116785000Y-78177500D01*
G75*
G02*
X116547500Y-78415000I-237500J0D01*
G01*
G37*
G36*
G01*
X116547500Y-76665000D02*
X116072500Y-76665000D01*
G75*
G02*
X115835000Y-76427500I0J237500D01*
G01*
X115835000Y-75852500D01*
G75*
G02*
X116072500Y-75615000I237500J0D01*
G01*
X116547500Y-75615000D01*
G75*
G02*
X116785000Y-75852500I0J-237500D01*
G01*
X116785000Y-76427500D01*
G75*
G02*
X116547500Y-76665000I-237500J0D01*
G01*
G37*
%TD*%
%TO.C,D3*%
G36*
G01*
X113035000Y-74082500D02*
X113035000Y-74557500D01*
G75*
G02*
X112797500Y-74795000I-237500J0D01*
G01*
X112222500Y-74795000D01*
G75*
G02*
X111985000Y-74557500I0J237500D01*
G01*
X111985000Y-74082500D01*
G75*
G02*
X112222500Y-73845000I237500J0D01*
G01*
X112797500Y-73845000D01*
G75*
G02*
X113035000Y-74082500I0J-237500D01*
G01*
G37*
G36*
G01*
X111285000Y-74082500D02*
X111285000Y-74557500D01*
G75*
G02*
X111047500Y-74795000I-237500J0D01*
G01*
X110472500Y-74795000D01*
G75*
G02*
X110235000Y-74557500I0J237500D01*
G01*
X110235000Y-74082500D01*
G75*
G02*
X110472500Y-73845000I237500J0D01*
G01*
X111047500Y-73845000D01*
G75*
G02*
X111285000Y-74082500I0J-237500D01*
G01*
G37*
%TD*%
%TO.C,D4*%
G36*
G01*
X114322500Y-75505000D02*
X114797500Y-75505000D01*
G75*
G02*
X115035000Y-75742500I0J-237500D01*
G01*
X115035000Y-76317500D01*
G75*
G02*
X114797500Y-76555000I-237500J0D01*
G01*
X114322500Y-76555000D01*
G75*
G02*
X114085000Y-76317500I0J237500D01*
G01*
X114085000Y-75742500D01*
G75*
G02*
X114322500Y-75505000I237500J0D01*
G01*
G37*
G36*
G01*
X114322500Y-73755000D02*
X114797500Y-73755000D01*
G75*
G02*
X115035000Y-73992500I0J-237500D01*
G01*
X115035000Y-74567500D01*
G75*
G02*
X114797500Y-74805000I-237500J0D01*
G01*
X114322500Y-74805000D01*
G75*
G02*
X114085000Y-74567500I0J237500D01*
G01*
X114085000Y-73992500D01*
G75*
G02*
X114322500Y-73755000I237500J0D01*
G01*
G37*
%TD*%
%TO.C,L1*%
G36*
G01*
X110225000Y-76187500D02*
X110225000Y-75712500D01*
G75*
G02*
X110462500Y-75475000I237500J0D01*
G01*
X111037500Y-75475000D01*
G75*
G02*
X111275000Y-75712500I0J-237500D01*
G01*
X111275000Y-76187500D01*
G75*
G02*
X111037500Y-76425000I-237500J0D01*
G01*
X110462500Y-76425000D01*
G75*
G02*
X110225000Y-76187500I0J237500D01*
G01*
G37*
G36*
G01*
X111975000Y-76187500D02*
X111975000Y-75712500D01*
G75*
G02*
X112212500Y-75475000I237500J0D01*
G01*
X112787500Y-75475000D01*
G75*
G02*
X113025000Y-75712500I0J-237500D01*
G01*
X113025000Y-76187500D01*
G75*
G02*
X112787500Y-76425000I-237500J0D01*
G01*
X112212500Y-76425000D01*
G75*
G02*
X111975000Y-76187500I0J237500D01*
G01*
G37*
%TD*%
D10*
%TO.C,U1*%
X117930000Y-74310000D03*
X117930000Y-76210000D03*
X119930000Y-75260000D03*
%TD*%
%TO.C,C1*%
G36*
G01*
X116567500Y-74647500D02*
X116092500Y-74647500D01*
G75*
G02*
X115855000Y-74410000I0J237500D01*
G01*
X115855000Y-73810000D01*
G75*
G02*
X116092500Y-73572500I237500J0D01*
G01*
X116567500Y-73572500D01*
G75*
G02*
X116805000Y-73810000I0J-237500D01*
G01*
X116805000Y-74410000D01*
G75*
G02*
X116567500Y-74647500I-237500J0D01*
G01*
G37*
G36*
G01*
X116567500Y-72922500D02*
X116092500Y-72922500D01*
G75*
G02*
X115855000Y-72685000I0J237500D01*
G01*
X115855000Y-72085000D01*
G75*
G02*
X116092500Y-71847500I237500J0D01*
G01*
X116567500Y-71847500D01*
G75*
G02*
X116805000Y-72085000I0J-237500D01*
G01*
X116805000Y-72685000D01*
G75*
G02*
X116567500Y-72922500I-237500J0D01*
G01*
G37*
%TD*%
M02*
