%TF.GenerationSoftware,KiCad,Pcbnew,(5.1.7)-1*%
%TF.CreationDate,2021-01-07T18:27:11-05:00*%
%TF.ProjectId,bpw,6270772e-6b69-4636-9164-5f7063625858,rev?*%
%TF.SameCoordinates,Original*%
%TF.FileFunction,Copper,L1,Top*%
%TF.FilePolarity,Positive*%
%FSLAX46Y46*%
G04 Gerber Fmt 4.6, Leading zero omitted, Abs format (unit mm)*
G04 Created by KiCad (PCBNEW (5.1.7)-1) date 2021-01-07 18:27:11*
%MOMM*%
%LPD*%
G01*
G04 APERTURE LIST*
%TA.AperFunction,SMDPad,CuDef*%
%ADD10R,0.900000X0.800000*%
%TD*%
%TA.AperFunction,ViaPad*%
%ADD11C,2.000000*%
%TD*%
%TA.AperFunction,Conductor*%
%ADD12C,0.500000*%
%TD*%
%TA.AperFunction,Conductor*%
%ADD13C,0.250000*%
%TD*%
%TA.AperFunction,Conductor*%
%ADD14C,0.254000*%
%TD*%
%TA.AperFunction,Conductor*%
%ADD15C,0.100000*%
%TD*%
G04 APERTURE END LIST*
%TO.P,D5,1*%
%TO.N,GND*%
%TA.AperFunction,SMDPad,CuDef*%
G36*
G01*
X116547500Y-78415000D02*
X116072500Y-78415000D01*
G75*
G02*
X115835000Y-78177500I0J237500D01*
G01*
X115835000Y-77602500D01*
G75*
G02*
X116072500Y-77365000I237500J0D01*
G01*
X116547500Y-77365000D01*
G75*
G02*
X116785000Y-77602500I0J-237500D01*
G01*
X116785000Y-78177500D01*
G75*
G02*
X116547500Y-78415000I-237500J0D01*
G01*
G37*
%TD.AperFunction*%
%TO.P,D5,2*%
%TO.N,Net-(D4-Pad2)*%
%TA.AperFunction,SMDPad,CuDef*%
G36*
G01*
X116547500Y-76665000D02*
X116072500Y-76665000D01*
G75*
G02*
X115835000Y-76427500I0J237500D01*
G01*
X115835000Y-75852500D01*
G75*
G02*
X116072500Y-75615000I237500J0D01*
G01*
X116547500Y-75615000D01*
G75*
G02*
X116785000Y-75852500I0J-237500D01*
G01*
X116785000Y-76427500D01*
G75*
G02*
X116547500Y-76665000I-237500J0D01*
G01*
G37*
%TD.AperFunction*%
%TD*%
%TO.P,D3,1*%
%TO.N,Net-(C1-Pad1)*%
%TA.AperFunction,SMDPad,CuDef*%
G36*
G01*
X113035000Y-74082500D02*
X113035000Y-74557500D01*
G75*
G02*
X112797500Y-74795000I-237500J0D01*
G01*
X112222500Y-74795000D01*
G75*
G02*
X111985000Y-74557500I0J237500D01*
G01*
X111985000Y-74082500D01*
G75*
G02*
X112222500Y-73845000I237500J0D01*
G01*
X112797500Y-73845000D01*
G75*
G02*
X113035000Y-74082500I0J-237500D01*
G01*
G37*
%TD.AperFunction*%
%TO.P,D3,2*%
%TO.N,Net-(D1-Pad2)*%
%TA.AperFunction,SMDPad,CuDef*%
G36*
G01*
X111285000Y-74082500D02*
X111285000Y-74557500D01*
G75*
G02*
X111047500Y-74795000I-237500J0D01*
G01*
X110472500Y-74795000D01*
G75*
G02*
X110235000Y-74557500I0J237500D01*
G01*
X110235000Y-74082500D01*
G75*
G02*
X110472500Y-73845000I237500J0D01*
G01*
X111047500Y-73845000D01*
G75*
G02*
X111285000Y-74082500I0J-237500D01*
G01*
G37*
%TD.AperFunction*%
%TD*%
%TO.P,D4,2*%
%TO.N,Net-(D4-Pad2)*%
%TA.AperFunction,SMDPad,CuDef*%
G36*
G01*
X114322500Y-75505000D02*
X114797500Y-75505000D01*
G75*
G02*
X115035000Y-75742500I0J-237500D01*
G01*
X115035000Y-76317500D01*
G75*
G02*
X114797500Y-76555000I-237500J0D01*
G01*
X114322500Y-76555000D01*
G75*
G02*
X114085000Y-76317500I0J237500D01*
G01*
X114085000Y-75742500D01*
G75*
G02*
X114322500Y-75505000I237500J0D01*
G01*
G37*
%TD.AperFunction*%
%TO.P,D4,1*%
%TO.N,Net-(C1-Pad1)*%
%TA.AperFunction,SMDPad,CuDef*%
G36*
G01*
X114322500Y-73755000D02*
X114797500Y-73755000D01*
G75*
G02*
X115035000Y-73992500I0J-237500D01*
G01*
X115035000Y-74567500D01*
G75*
G02*
X114797500Y-74805000I-237500J0D01*
G01*
X114322500Y-74805000D01*
G75*
G02*
X114085000Y-74567500I0J237500D01*
G01*
X114085000Y-73992500D01*
G75*
G02*
X114322500Y-73755000I237500J0D01*
G01*
G37*
%TD.AperFunction*%
%TD*%
%TO.P,L1,1*%
%TO.N,Net-(D1-Pad2)*%
%TA.AperFunction,SMDPad,CuDef*%
G36*
G01*
X110225000Y-76187500D02*
X110225000Y-75712500D01*
G75*
G02*
X110462500Y-75475000I237500J0D01*
G01*
X111037500Y-75475000D01*
G75*
G02*
X111275000Y-75712500I0J-237500D01*
G01*
X111275000Y-76187500D01*
G75*
G02*
X111037500Y-76425000I-237500J0D01*
G01*
X110462500Y-76425000D01*
G75*
G02*
X110225000Y-76187500I0J237500D01*
G01*
G37*
%TD.AperFunction*%
%TO.P,L1,2*%
%TO.N,Net-(D4-Pad2)*%
%TA.AperFunction,SMDPad,CuDef*%
G36*
G01*
X111975000Y-76187500D02*
X111975000Y-75712500D01*
G75*
G02*
X112212500Y-75475000I237500J0D01*
G01*
X112787500Y-75475000D01*
G75*
G02*
X113025000Y-75712500I0J-237500D01*
G01*
X113025000Y-76187500D01*
G75*
G02*
X112787500Y-76425000I-237500J0D01*
G01*
X112212500Y-76425000D01*
G75*
G02*
X111975000Y-76187500I0J237500D01*
G01*
G37*
%TD.AperFunction*%
%TD*%
D10*
%TO.P,U1,1*%
%TO.N,Net-(C1-Pad1)*%
X117930000Y-74310000D03*
%TO.P,U1,2*%
%TO.N,Net-(D4-Pad2)*%
X117930000Y-76210000D03*
%TO.P,U1,3*%
%TO.N,GND*%
X119930000Y-75260000D03*
%TD*%
%TO.P,C1,1*%
%TO.N,Net-(C1-Pad1)*%
%TA.AperFunction,SMDPad,CuDef*%
G36*
G01*
X116567500Y-74647500D02*
X116092500Y-74647500D01*
G75*
G02*
X115855000Y-74410000I0J237500D01*
G01*
X115855000Y-73810000D01*
G75*
G02*
X116092500Y-73572500I237500J0D01*
G01*
X116567500Y-73572500D01*
G75*
G02*
X116805000Y-73810000I0J-237500D01*
G01*
X116805000Y-74410000D01*
G75*
G02*
X116567500Y-74647500I-237500J0D01*
G01*
G37*
%TD.AperFunction*%
%TO.P,C1,2*%
%TO.N,GND*%
%TA.AperFunction,SMDPad,CuDef*%
G36*
G01*
X116567500Y-72922500D02*
X116092500Y-72922500D01*
G75*
G02*
X115855000Y-72685000I0J237500D01*
G01*
X115855000Y-72085000D01*
G75*
G02*
X116092500Y-71847500I237500J0D01*
G01*
X116567500Y-71847500D01*
G75*
G02*
X116805000Y-72085000I0J-237500D01*
G01*
X116805000Y-72685000D01*
G75*
G02*
X116567500Y-72922500I-237500J0D01*
G01*
G37*
%TD.AperFunction*%
%TD*%
D11*
%TO.N,Net-(D1-Pad2)*%
X110760000Y-71980000D03*
%TO.N,GND*%
X110860000Y-78300000D03*
%TD*%
D12*
%TO.N,Net-(C1-Pad1)*%
X114480000Y-74200000D02*
X114560000Y-74280000D01*
X114605000Y-74325000D02*
X114560000Y-74280000D01*
X114520000Y-74320000D02*
X114560000Y-74280000D01*
X112510000Y-74320000D02*
X114520000Y-74320000D01*
X116160000Y-74280000D02*
X116330000Y-74110000D01*
X114560000Y-74280000D02*
X116160000Y-74280000D01*
X116530000Y-74310000D02*
X116330000Y-74110000D01*
X117930000Y-74310000D02*
X116530000Y-74310000D01*
%TO.N,Net-(D1-Pad2)*%
X110750000Y-74330000D02*
X110760000Y-74320000D01*
X110750000Y-75950000D02*
X110750000Y-74330000D01*
D13*
X110760000Y-74320000D02*
X110760000Y-71980000D01*
D12*
%TO.N,Net-(D4-Pad2)*%
X114480000Y-75950000D02*
X114560000Y-76030000D01*
X112500000Y-75950000D02*
X114480000Y-75950000D01*
X116200000Y-76030000D02*
X116310000Y-76140000D01*
X114560000Y-76030000D02*
X116200000Y-76030000D01*
X116380000Y-76210000D02*
X116310000Y-76140000D01*
X117930000Y-76210000D02*
X116380000Y-76210000D01*
%TO.N,GND*%
X116200000Y-72810000D02*
X116360000Y-72650000D01*
D13*
X116310000Y-77890000D02*
X111270000Y-77890000D01*
X111270000Y-77890000D02*
X110860000Y-78300000D01*
%TD*%
D14*
%TO.N,GND*%
X121700001Y-79500000D02*
X109520000Y-79500000D01*
X109520000Y-78415000D01*
X115196928Y-78415000D01*
X115209188Y-78539482D01*
X115245498Y-78659180D01*
X115304463Y-78769494D01*
X115383815Y-78866185D01*
X115480506Y-78945537D01*
X115590820Y-79004502D01*
X115710518Y-79040812D01*
X115835000Y-79053072D01*
X116024250Y-79050000D01*
X116183000Y-78891250D01*
X116183000Y-78017000D01*
X116437000Y-78017000D01*
X116437000Y-78891250D01*
X116595750Y-79050000D01*
X116785000Y-79053072D01*
X116909482Y-79040812D01*
X117029180Y-79004502D01*
X117139494Y-78945537D01*
X117236185Y-78866185D01*
X117315537Y-78769494D01*
X117374502Y-78659180D01*
X117410812Y-78539482D01*
X117423072Y-78415000D01*
X117420000Y-78175750D01*
X117261250Y-78017000D01*
X116437000Y-78017000D01*
X116183000Y-78017000D01*
X115358750Y-78017000D01*
X115200000Y-78175750D01*
X115196928Y-78415000D01*
X109520000Y-78415000D01*
X109520000Y-73052239D01*
X109717748Y-73249987D01*
X109935833Y-73395707D01*
X109853377Y-73463377D01*
X109744488Y-73596058D01*
X109663577Y-73747433D01*
X109613752Y-73911684D01*
X109596928Y-74082500D01*
X109596928Y-74557500D01*
X109613752Y-74728316D01*
X109663577Y-74892567D01*
X109744488Y-75043942D01*
X109814218Y-75128908D01*
X109734488Y-75226058D01*
X109653577Y-75377433D01*
X109603752Y-75541684D01*
X109586928Y-75712500D01*
X109586928Y-76187500D01*
X109603752Y-76358316D01*
X109653577Y-76522567D01*
X109734488Y-76673942D01*
X109843377Y-76806623D01*
X109976058Y-76915512D01*
X110127433Y-76996423D01*
X110291684Y-77046248D01*
X110462500Y-77063072D01*
X111037500Y-77063072D01*
X111208316Y-77046248D01*
X111372567Y-76996423D01*
X111523942Y-76915512D01*
X111625000Y-76832575D01*
X111726058Y-76915512D01*
X111877433Y-76996423D01*
X112041684Y-77046248D01*
X112212500Y-77063072D01*
X112787500Y-77063072D01*
X112958316Y-77046248D01*
X113122567Y-76996423D01*
X113273942Y-76915512D01*
X113372046Y-76835000D01*
X113619977Y-76835000D01*
X113703377Y-76936623D01*
X113836058Y-77045512D01*
X113987433Y-77126423D01*
X114151684Y-77176248D01*
X114322500Y-77193072D01*
X114797500Y-77193072D01*
X114968316Y-77176248D01*
X115132567Y-77126423D01*
X115283942Y-77045512D01*
X115287166Y-77042866D01*
X115245498Y-77120820D01*
X115209188Y-77240518D01*
X115196928Y-77365000D01*
X115200000Y-77604250D01*
X115358750Y-77763000D01*
X116183000Y-77763000D01*
X116183000Y-77743000D01*
X116437000Y-77743000D01*
X116437000Y-77763000D01*
X117261250Y-77763000D01*
X117420000Y-77604250D01*
X117423072Y-77365000D01*
X117410886Y-77241265D01*
X117480000Y-77248072D01*
X118380000Y-77248072D01*
X118504482Y-77235812D01*
X118624180Y-77199502D01*
X118734494Y-77140537D01*
X118831185Y-77061185D01*
X118910537Y-76964494D01*
X118969502Y-76854180D01*
X119005812Y-76734482D01*
X119018072Y-76610000D01*
X119018072Y-76098095D01*
X119028815Y-76111185D01*
X119125506Y-76190537D01*
X119235820Y-76249502D01*
X119355518Y-76285812D01*
X119480000Y-76298072D01*
X119644250Y-76295000D01*
X119803000Y-76136250D01*
X119803000Y-75387000D01*
X120057000Y-75387000D01*
X120057000Y-76136250D01*
X120215750Y-76295000D01*
X120380000Y-76298072D01*
X120504482Y-76285812D01*
X120624180Y-76249502D01*
X120734494Y-76190537D01*
X120831185Y-76111185D01*
X120910537Y-76014494D01*
X120969502Y-75904180D01*
X121005812Y-75784482D01*
X121018072Y-75660000D01*
X121015000Y-75545750D01*
X120856250Y-75387000D01*
X120057000Y-75387000D01*
X119803000Y-75387000D01*
X119003750Y-75387000D01*
X118919143Y-75471607D01*
X118910537Y-75455506D01*
X118831185Y-75358815D01*
X118734494Y-75279463D01*
X118698082Y-75260000D01*
X118734494Y-75240537D01*
X118831185Y-75161185D01*
X118910537Y-75064494D01*
X118919143Y-75048393D01*
X119003750Y-75133000D01*
X119803000Y-75133000D01*
X119803000Y-74383750D01*
X120057000Y-74383750D01*
X120057000Y-75133000D01*
X120856250Y-75133000D01*
X121015000Y-74974250D01*
X121018072Y-74860000D01*
X121005812Y-74735518D01*
X120969502Y-74615820D01*
X120910537Y-74505506D01*
X120831185Y-74408815D01*
X120734494Y-74329463D01*
X120624180Y-74270498D01*
X120504482Y-74234188D01*
X120380000Y-74221928D01*
X120215750Y-74225000D01*
X120057000Y-74383750D01*
X119803000Y-74383750D01*
X119644250Y-74225000D01*
X119480000Y-74221928D01*
X119355518Y-74234188D01*
X119235820Y-74270498D01*
X119125506Y-74329463D01*
X119028815Y-74408815D01*
X119018072Y-74421905D01*
X119018072Y-73910000D01*
X119005812Y-73785518D01*
X118969502Y-73665820D01*
X118910537Y-73555506D01*
X118831185Y-73458815D01*
X118734494Y-73379463D01*
X118624180Y-73320498D01*
X118504482Y-73284188D01*
X118380000Y-73271928D01*
X117480000Y-73271928D01*
X117355518Y-73284188D01*
X117321053Y-73294643D01*
X117335537Y-73276994D01*
X117394502Y-73166680D01*
X117430812Y-73046982D01*
X117443072Y-72922500D01*
X117440000Y-72670750D01*
X117281250Y-72512000D01*
X116457000Y-72512000D01*
X116457000Y-72532000D01*
X116203000Y-72532000D01*
X116203000Y-72512000D01*
X115378750Y-72512000D01*
X115220000Y-72670750D01*
X115216928Y-72922500D01*
X115229188Y-73046982D01*
X115265498Y-73166680D01*
X115324463Y-73276994D01*
X115363774Y-73324894D01*
X115361875Y-73328446D01*
X115283942Y-73264488D01*
X115132567Y-73183577D01*
X114968316Y-73133752D01*
X114797500Y-73116928D01*
X114322500Y-73116928D01*
X114151684Y-73133752D01*
X113987433Y-73183577D01*
X113836058Y-73264488D01*
X113703377Y-73373377D01*
X113652804Y-73435000D01*
X113382046Y-73435000D01*
X113283942Y-73354488D01*
X113132567Y-73273577D01*
X112968316Y-73223752D01*
X112797500Y-73206928D01*
X112222500Y-73206928D01*
X112051684Y-73223752D01*
X111887433Y-73273577D01*
X111736058Y-73354488D01*
X111635000Y-73437425D01*
X111584167Y-73395707D01*
X111802252Y-73249987D01*
X112029987Y-73022252D01*
X112208918Y-72754463D01*
X112332168Y-72456912D01*
X112395000Y-72141033D01*
X112395000Y-71847500D01*
X115216928Y-71847500D01*
X115220000Y-72099250D01*
X115378750Y-72258000D01*
X116203000Y-72258000D01*
X116203000Y-71371250D01*
X116457000Y-71371250D01*
X116457000Y-72258000D01*
X117281250Y-72258000D01*
X117440000Y-72099250D01*
X117443072Y-71847500D01*
X117430812Y-71723018D01*
X117394502Y-71603320D01*
X117335537Y-71493006D01*
X117256185Y-71396315D01*
X117159494Y-71316963D01*
X117049180Y-71257998D01*
X116929482Y-71221688D01*
X116805000Y-71209428D01*
X116615750Y-71212500D01*
X116457000Y-71371250D01*
X116203000Y-71371250D01*
X116044250Y-71212500D01*
X115855000Y-71209428D01*
X115730518Y-71221688D01*
X115610820Y-71257998D01*
X115500506Y-71316963D01*
X115403815Y-71396315D01*
X115324463Y-71493006D01*
X115265498Y-71603320D01*
X115229188Y-71723018D01*
X115216928Y-71847500D01*
X112395000Y-71847500D01*
X112395000Y-71818967D01*
X112332168Y-71503088D01*
X112208918Y-71205537D01*
X112029987Y-70937748D01*
X111802252Y-70710013D01*
X111667538Y-70620000D01*
X121700000Y-70620000D01*
X121700001Y-79500000D01*
%TA.AperFunction,Conductor*%
D15*
G36*
X121700001Y-79500000D02*
G01*
X109520000Y-79500000D01*
X109520000Y-78415000D01*
X115196928Y-78415000D01*
X115209188Y-78539482D01*
X115245498Y-78659180D01*
X115304463Y-78769494D01*
X115383815Y-78866185D01*
X115480506Y-78945537D01*
X115590820Y-79004502D01*
X115710518Y-79040812D01*
X115835000Y-79053072D01*
X116024250Y-79050000D01*
X116183000Y-78891250D01*
X116183000Y-78017000D01*
X116437000Y-78017000D01*
X116437000Y-78891250D01*
X116595750Y-79050000D01*
X116785000Y-79053072D01*
X116909482Y-79040812D01*
X117029180Y-79004502D01*
X117139494Y-78945537D01*
X117236185Y-78866185D01*
X117315537Y-78769494D01*
X117374502Y-78659180D01*
X117410812Y-78539482D01*
X117423072Y-78415000D01*
X117420000Y-78175750D01*
X117261250Y-78017000D01*
X116437000Y-78017000D01*
X116183000Y-78017000D01*
X115358750Y-78017000D01*
X115200000Y-78175750D01*
X115196928Y-78415000D01*
X109520000Y-78415000D01*
X109520000Y-73052239D01*
X109717748Y-73249987D01*
X109935833Y-73395707D01*
X109853377Y-73463377D01*
X109744488Y-73596058D01*
X109663577Y-73747433D01*
X109613752Y-73911684D01*
X109596928Y-74082500D01*
X109596928Y-74557500D01*
X109613752Y-74728316D01*
X109663577Y-74892567D01*
X109744488Y-75043942D01*
X109814218Y-75128908D01*
X109734488Y-75226058D01*
X109653577Y-75377433D01*
X109603752Y-75541684D01*
X109586928Y-75712500D01*
X109586928Y-76187500D01*
X109603752Y-76358316D01*
X109653577Y-76522567D01*
X109734488Y-76673942D01*
X109843377Y-76806623D01*
X109976058Y-76915512D01*
X110127433Y-76996423D01*
X110291684Y-77046248D01*
X110462500Y-77063072D01*
X111037500Y-77063072D01*
X111208316Y-77046248D01*
X111372567Y-76996423D01*
X111523942Y-76915512D01*
X111625000Y-76832575D01*
X111726058Y-76915512D01*
X111877433Y-76996423D01*
X112041684Y-77046248D01*
X112212500Y-77063072D01*
X112787500Y-77063072D01*
X112958316Y-77046248D01*
X113122567Y-76996423D01*
X113273942Y-76915512D01*
X113372046Y-76835000D01*
X113619977Y-76835000D01*
X113703377Y-76936623D01*
X113836058Y-77045512D01*
X113987433Y-77126423D01*
X114151684Y-77176248D01*
X114322500Y-77193072D01*
X114797500Y-77193072D01*
X114968316Y-77176248D01*
X115132567Y-77126423D01*
X115283942Y-77045512D01*
X115287166Y-77042866D01*
X115245498Y-77120820D01*
X115209188Y-77240518D01*
X115196928Y-77365000D01*
X115200000Y-77604250D01*
X115358750Y-77763000D01*
X116183000Y-77763000D01*
X116183000Y-77743000D01*
X116437000Y-77743000D01*
X116437000Y-77763000D01*
X117261250Y-77763000D01*
X117420000Y-77604250D01*
X117423072Y-77365000D01*
X117410886Y-77241265D01*
X117480000Y-77248072D01*
X118380000Y-77248072D01*
X118504482Y-77235812D01*
X118624180Y-77199502D01*
X118734494Y-77140537D01*
X118831185Y-77061185D01*
X118910537Y-76964494D01*
X118969502Y-76854180D01*
X119005812Y-76734482D01*
X119018072Y-76610000D01*
X119018072Y-76098095D01*
X119028815Y-76111185D01*
X119125506Y-76190537D01*
X119235820Y-76249502D01*
X119355518Y-76285812D01*
X119480000Y-76298072D01*
X119644250Y-76295000D01*
X119803000Y-76136250D01*
X119803000Y-75387000D01*
X120057000Y-75387000D01*
X120057000Y-76136250D01*
X120215750Y-76295000D01*
X120380000Y-76298072D01*
X120504482Y-76285812D01*
X120624180Y-76249502D01*
X120734494Y-76190537D01*
X120831185Y-76111185D01*
X120910537Y-76014494D01*
X120969502Y-75904180D01*
X121005812Y-75784482D01*
X121018072Y-75660000D01*
X121015000Y-75545750D01*
X120856250Y-75387000D01*
X120057000Y-75387000D01*
X119803000Y-75387000D01*
X119003750Y-75387000D01*
X118919143Y-75471607D01*
X118910537Y-75455506D01*
X118831185Y-75358815D01*
X118734494Y-75279463D01*
X118698082Y-75260000D01*
X118734494Y-75240537D01*
X118831185Y-75161185D01*
X118910537Y-75064494D01*
X118919143Y-75048393D01*
X119003750Y-75133000D01*
X119803000Y-75133000D01*
X119803000Y-74383750D01*
X120057000Y-74383750D01*
X120057000Y-75133000D01*
X120856250Y-75133000D01*
X121015000Y-74974250D01*
X121018072Y-74860000D01*
X121005812Y-74735518D01*
X120969502Y-74615820D01*
X120910537Y-74505506D01*
X120831185Y-74408815D01*
X120734494Y-74329463D01*
X120624180Y-74270498D01*
X120504482Y-74234188D01*
X120380000Y-74221928D01*
X120215750Y-74225000D01*
X120057000Y-74383750D01*
X119803000Y-74383750D01*
X119644250Y-74225000D01*
X119480000Y-74221928D01*
X119355518Y-74234188D01*
X119235820Y-74270498D01*
X119125506Y-74329463D01*
X119028815Y-74408815D01*
X119018072Y-74421905D01*
X119018072Y-73910000D01*
X119005812Y-73785518D01*
X118969502Y-73665820D01*
X118910537Y-73555506D01*
X118831185Y-73458815D01*
X118734494Y-73379463D01*
X118624180Y-73320498D01*
X118504482Y-73284188D01*
X118380000Y-73271928D01*
X117480000Y-73271928D01*
X117355518Y-73284188D01*
X117321053Y-73294643D01*
X117335537Y-73276994D01*
X117394502Y-73166680D01*
X117430812Y-73046982D01*
X117443072Y-72922500D01*
X117440000Y-72670750D01*
X117281250Y-72512000D01*
X116457000Y-72512000D01*
X116457000Y-72532000D01*
X116203000Y-72532000D01*
X116203000Y-72512000D01*
X115378750Y-72512000D01*
X115220000Y-72670750D01*
X115216928Y-72922500D01*
X115229188Y-73046982D01*
X115265498Y-73166680D01*
X115324463Y-73276994D01*
X115363774Y-73324894D01*
X115361875Y-73328446D01*
X115283942Y-73264488D01*
X115132567Y-73183577D01*
X114968316Y-73133752D01*
X114797500Y-73116928D01*
X114322500Y-73116928D01*
X114151684Y-73133752D01*
X113987433Y-73183577D01*
X113836058Y-73264488D01*
X113703377Y-73373377D01*
X113652804Y-73435000D01*
X113382046Y-73435000D01*
X113283942Y-73354488D01*
X113132567Y-73273577D01*
X112968316Y-73223752D01*
X112797500Y-73206928D01*
X112222500Y-73206928D01*
X112051684Y-73223752D01*
X111887433Y-73273577D01*
X111736058Y-73354488D01*
X111635000Y-73437425D01*
X111584167Y-73395707D01*
X111802252Y-73249987D01*
X112029987Y-73022252D01*
X112208918Y-72754463D01*
X112332168Y-72456912D01*
X112395000Y-72141033D01*
X112395000Y-71847500D01*
X115216928Y-71847500D01*
X115220000Y-72099250D01*
X115378750Y-72258000D01*
X116203000Y-72258000D01*
X116203000Y-71371250D01*
X116457000Y-71371250D01*
X116457000Y-72258000D01*
X117281250Y-72258000D01*
X117440000Y-72099250D01*
X117443072Y-71847500D01*
X117430812Y-71723018D01*
X117394502Y-71603320D01*
X117335537Y-71493006D01*
X117256185Y-71396315D01*
X117159494Y-71316963D01*
X117049180Y-71257998D01*
X116929482Y-71221688D01*
X116805000Y-71209428D01*
X116615750Y-71212500D01*
X116457000Y-71371250D01*
X116203000Y-71371250D01*
X116044250Y-71212500D01*
X115855000Y-71209428D01*
X115730518Y-71221688D01*
X115610820Y-71257998D01*
X115500506Y-71316963D01*
X115403815Y-71396315D01*
X115324463Y-71493006D01*
X115265498Y-71603320D01*
X115229188Y-71723018D01*
X115216928Y-71847500D01*
X112395000Y-71847500D01*
X112395000Y-71818967D01*
X112332168Y-71503088D01*
X112208918Y-71205537D01*
X112029987Y-70937748D01*
X111802252Y-70710013D01*
X111667538Y-70620000D01*
X121700000Y-70620000D01*
X121700001Y-79500000D01*
G37*
%TD.AperFunction*%
%TD*%
M02*
