%TF.GenerationSoftware,KiCad,Pcbnew,(5.1.9)-1*%
%TF.CreationDate,2021-01-08T17:34:09-05:00*%
%TF.ProjectId,bpw,6270772e-6b69-4636-9164-5f7063625858,rev?*%
%TF.SameCoordinates,Original*%
%TF.FileFunction,Copper,L1,Top*%
%TF.FilePolarity,Positive*%
%FSLAX46Y46*%
G04 Gerber Fmt 4.6, Leading zero omitted, Abs format (unit mm)*
G04 Created by KiCad (PCBNEW (5.1.9)-1) date 2021-01-08 17:34:09*
%MOMM*%
%LPD*%
G01*
G04 APERTURE LIST*
%TA.AperFunction,SMDPad,CuDef*%
%ADD10R,0.800000X0.900000*%
%TD*%
%TA.AperFunction,ViaPad*%
%ADD11C,2.000000*%
%TD*%
%TA.AperFunction,Conductor*%
%ADD12C,0.500000*%
%TD*%
%TA.AperFunction,NonConductor*%
%ADD13C,0.154000*%
%TD*%
%TA.AperFunction,NonConductor*%
%ADD14C,0.100000*%
%TD*%
G04 APERTURE END LIST*
D10*
%TO.P,U1,1*%
%TO.N,Net-(D1-Pad2)*%
X114940000Y-74930000D03*
%TO.P,U1,2*%
%TO.N,Net-(D5-Pad2)*%
X116840000Y-74930000D03*
%TO.P,U1,3*%
%TO.N,Net-(D2-Pad1)*%
X115890000Y-72930000D03*
%TD*%
%TO.P,L1,1*%
%TO.N,Net-(D1-Pad2)*%
%TA.AperFunction,SMDPad,CuDef*%
G36*
G01*
X114565000Y-77707500D02*
X114565000Y-77232500D01*
G75*
G02*
X114802500Y-76995000I237500J0D01*
G01*
X115377500Y-76995000D01*
G75*
G02*
X115615000Y-77232500I0J-237500D01*
G01*
X115615000Y-77707500D01*
G75*
G02*
X115377500Y-77945000I-237500J0D01*
G01*
X114802500Y-77945000D01*
G75*
G02*
X114565000Y-77707500I0J237500D01*
G01*
G37*
%TD.AperFunction*%
%TO.P,L1,2*%
%TO.N,Net-(D5-Pad2)*%
%TA.AperFunction,SMDPad,CuDef*%
G36*
G01*
X116315000Y-77707500D02*
X116315000Y-77232500D01*
G75*
G02*
X116552500Y-76995000I237500J0D01*
G01*
X117127500Y-76995000D01*
G75*
G02*
X117365000Y-77232500I0J-237500D01*
G01*
X117365000Y-77707500D01*
G75*
G02*
X117127500Y-77945000I-237500J0D01*
G01*
X116552500Y-77945000D01*
G75*
G02*
X116315000Y-77707500I0J237500D01*
G01*
G37*
%TD.AperFunction*%
%TD*%
%TO.P,D5,1*%
%TO.N,Net-(D2-Pad1)*%
%TA.AperFunction,SMDPad,CuDef*%
G36*
G01*
X119777500Y-72655000D02*
X120252500Y-72655000D01*
G75*
G02*
X120490000Y-72892500I0J-237500D01*
G01*
X120490000Y-73467500D01*
G75*
G02*
X120252500Y-73705000I-237500J0D01*
G01*
X119777500Y-73705000D01*
G75*
G02*
X119540000Y-73467500I0J237500D01*
G01*
X119540000Y-72892500D01*
G75*
G02*
X119777500Y-72655000I237500J0D01*
G01*
G37*
%TD.AperFunction*%
%TO.P,D5,2*%
%TO.N,Net-(D5-Pad2)*%
%TA.AperFunction,SMDPad,CuDef*%
G36*
G01*
X119777500Y-74405000D02*
X120252500Y-74405000D01*
G75*
G02*
X120490000Y-74642500I0J-237500D01*
G01*
X120490000Y-75217500D01*
G75*
G02*
X120252500Y-75455000I-237500J0D01*
G01*
X119777500Y-75455000D01*
G75*
G02*
X119540000Y-75217500I0J237500D01*
G01*
X119540000Y-74642500D01*
G75*
G02*
X119777500Y-74405000I237500J0D01*
G01*
G37*
%TD.AperFunction*%
%TD*%
D11*
%TO.N,Net-(D1-Pad2)*%
X110490000Y-77470000D03*
%TO.N,Net-(D2-Pad1)*%
X110490000Y-71755000D03*
%TD*%
D12*
%TO.N,Net-(D1-Pad2)*%
X114940000Y-77320000D02*
X115090000Y-77470000D01*
X114940000Y-74930000D02*
X114940000Y-77320000D01*
X115090000Y-77470000D02*
X110490000Y-77470000D01*
%TO.N,Net-(D2-Pad1)*%
X120015000Y-72390000D02*
X120015000Y-73180000D01*
X119380000Y-71755000D02*
X120015000Y-72390000D01*
X115890000Y-72075000D02*
X115570000Y-71755000D01*
X115570000Y-71755000D02*
X119380000Y-71755000D01*
X115890000Y-72930000D02*
X115890000Y-72075000D01*
X110490000Y-71755000D02*
X115570000Y-71755000D01*
%TO.N,Net-(D5-Pad2)*%
X120015000Y-74930000D02*
X116840000Y-74930000D01*
X116840000Y-77470000D02*
X116840000Y-74930000D01*
%TD*%
D13*
X117684475Y-70236600D02*
X118502261Y-70460320D01*
X119267498Y-70825321D01*
X119956013Y-71320067D01*
X120546027Y-71928916D01*
X121018905Y-72632631D01*
X121359687Y-73408954D01*
X121557610Y-74233364D01*
X121606414Y-75079790D01*
X121504559Y-75921483D01*
X121255261Y-76731837D01*
X120866407Y-77485230D01*
X120350276Y-78157864D01*
X119723193Y-78728466D01*
X119004975Y-79179004D01*
X118218328Y-79495234D01*
X117383309Y-79668158D01*
X116831069Y-79700000D01*
X110505166Y-79700000D01*
X110180483Y-79668165D01*
X109882760Y-79578277D01*
X109608160Y-79432269D01*
X109367157Y-79235711D01*
X109168916Y-78996079D01*
X109020999Y-78722512D01*
X108929034Y-78425421D01*
X108895000Y-78101613D01*
X108895000Y-71770165D01*
X108908895Y-71628439D01*
X109205000Y-71628439D01*
X109205000Y-71881561D01*
X109254381Y-72129821D01*
X109351247Y-72363676D01*
X109491875Y-72574140D01*
X109670860Y-72753125D01*
X109881324Y-72893753D01*
X110115179Y-72990619D01*
X110363439Y-73040000D01*
X110616561Y-73040000D01*
X110864821Y-72990619D01*
X111098676Y-72893753D01*
X111309140Y-72753125D01*
X111488125Y-72574140D01*
X111628753Y-72363676D01*
X111659271Y-72290000D01*
X114223000Y-72290000D01*
X114223000Y-76935000D01*
X111659271Y-76935000D01*
X111628753Y-76861324D01*
X111488125Y-76650860D01*
X111309140Y-76471875D01*
X111098676Y-76331247D01*
X110864821Y-76234381D01*
X110616561Y-76185000D01*
X110363439Y-76185000D01*
X110115179Y-76234381D01*
X109881324Y-76331247D01*
X109670860Y-76471875D01*
X109491875Y-76650860D01*
X109351247Y-76861324D01*
X109254381Y-77095179D01*
X109205000Y-77343439D01*
X109205000Y-77596561D01*
X109254381Y-77844821D01*
X109351247Y-78078676D01*
X109491875Y-78289140D01*
X109670860Y-78468125D01*
X109881324Y-78608753D01*
X110115179Y-78705619D01*
X110363439Y-78755000D01*
X110616561Y-78755000D01*
X110864821Y-78705619D01*
X111098676Y-78608753D01*
X111309140Y-78468125D01*
X111488125Y-78289140D01*
X111628753Y-78078676D01*
X111659271Y-78005000D01*
X114372204Y-78005000D01*
X114432062Y-78077938D01*
X114511449Y-78143089D01*
X114602021Y-78191500D01*
X114700296Y-78221312D01*
X114802500Y-78231378D01*
X115377500Y-78231378D01*
X115479704Y-78221312D01*
X115577979Y-78191500D01*
X115668551Y-78143089D01*
X115747938Y-78077938D01*
X115813089Y-77998551D01*
X115861500Y-77907979D01*
X115891312Y-77809704D01*
X115901378Y-77707500D01*
X115901378Y-77547000D01*
X116028622Y-77547000D01*
X116028622Y-77707500D01*
X116038688Y-77809704D01*
X116068500Y-77907979D01*
X116116911Y-77998551D01*
X116182062Y-78077938D01*
X116261449Y-78143089D01*
X116352021Y-78191500D01*
X116450296Y-78221312D01*
X116552500Y-78231378D01*
X117127500Y-78231378D01*
X117229704Y-78221312D01*
X117327979Y-78191500D01*
X117418551Y-78143089D01*
X117497938Y-78077938D01*
X117563089Y-77998551D01*
X117611500Y-77907979D01*
X117641312Y-77809704D01*
X117651378Y-77707500D01*
X117651378Y-77232500D01*
X117641312Y-77130296D01*
X117611500Y-77032021D01*
X117563089Y-76941449D01*
X117497938Y-76862062D01*
X117418551Y-76796911D01*
X117375000Y-76773633D01*
X117375000Y-75630998D01*
X117399103Y-75618115D01*
X117442500Y-75582500D01*
X117478115Y-75539103D01*
X117504579Y-75489592D01*
X117512039Y-75465000D01*
X119318633Y-75465000D01*
X119341911Y-75508551D01*
X119407062Y-75587938D01*
X119486449Y-75653089D01*
X119577021Y-75701500D01*
X119675296Y-75731312D01*
X119777500Y-75741378D01*
X120252500Y-75741378D01*
X120354704Y-75731312D01*
X120452979Y-75701500D01*
X120543551Y-75653089D01*
X120622938Y-75587938D01*
X120688089Y-75508551D01*
X120736500Y-75417979D01*
X120766312Y-75319704D01*
X120776378Y-75217500D01*
X120776378Y-74642500D01*
X120766312Y-74540296D01*
X120736500Y-74442021D01*
X120727000Y-74424247D01*
X120727000Y-73685753D01*
X120736500Y-73667979D01*
X120766312Y-73569704D01*
X120776378Y-73467500D01*
X120776378Y-72892500D01*
X120766312Y-72790296D01*
X120736500Y-72692021D01*
X120688089Y-72601449D01*
X120622938Y-72522062D01*
X120550000Y-72462204D01*
X120550000Y-72416275D01*
X120552588Y-72390000D01*
X120542258Y-72285122D01*
X120511667Y-72184273D01*
X120474490Y-72114722D01*
X120461988Y-72091332D01*
X120395132Y-72009868D01*
X120374721Y-71993117D01*
X119776887Y-71395284D01*
X119760132Y-71374868D01*
X119678668Y-71308012D01*
X119585726Y-71258333D01*
X119484878Y-71227742D01*
X119406275Y-71220000D01*
X119406268Y-71220000D01*
X119380000Y-71217413D01*
X119353732Y-71220000D01*
X115596268Y-71220000D01*
X115570000Y-71217413D01*
X115543732Y-71220000D01*
X111659271Y-71220000D01*
X111628753Y-71146324D01*
X111488125Y-70935860D01*
X111309140Y-70756875D01*
X111098676Y-70616247D01*
X110864821Y-70519381D01*
X110616561Y-70470000D01*
X110363439Y-70470000D01*
X110115179Y-70519381D01*
X109881324Y-70616247D01*
X109670860Y-70756875D01*
X109491875Y-70935860D01*
X109351247Y-71146324D01*
X109254381Y-71380179D01*
X109205000Y-71628439D01*
X108908895Y-71628439D01*
X108926834Y-71445487D01*
X109016724Y-71147759D01*
X109162729Y-70873163D01*
X109359289Y-70632157D01*
X109598919Y-70433917D01*
X109872488Y-70285999D01*
X110169579Y-70194034D01*
X110493387Y-70160000D01*
X116826191Y-70160000D01*
X117684475Y-70236600D01*
%TA.AperFunction,NonConductor*%
D14*
G36*
X117684475Y-70236600D02*
G01*
X118502261Y-70460320D01*
X119267498Y-70825321D01*
X119956013Y-71320067D01*
X120546027Y-71928916D01*
X121018905Y-72632631D01*
X121359687Y-73408954D01*
X121557610Y-74233364D01*
X121606414Y-75079790D01*
X121504559Y-75921483D01*
X121255261Y-76731837D01*
X120866407Y-77485230D01*
X120350276Y-78157864D01*
X119723193Y-78728466D01*
X119004975Y-79179004D01*
X118218328Y-79495234D01*
X117383309Y-79668158D01*
X116831069Y-79700000D01*
X110505166Y-79700000D01*
X110180483Y-79668165D01*
X109882760Y-79578277D01*
X109608160Y-79432269D01*
X109367157Y-79235711D01*
X109168916Y-78996079D01*
X109020999Y-78722512D01*
X108929034Y-78425421D01*
X108895000Y-78101613D01*
X108895000Y-71770165D01*
X108908895Y-71628439D01*
X109205000Y-71628439D01*
X109205000Y-71881561D01*
X109254381Y-72129821D01*
X109351247Y-72363676D01*
X109491875Y-72574140D01*
X109670860Y-72753125D01*
X109881324Y-72893753D01*
X110115179Y-72990619D01*
X110363439Y-73040000D01*
X110616561Y-73040000D01*
X110864821Y-72990619D01*
X111098676Y-72893753D01*
X111309140Y-72753125D01*
X111488125Y-72574140D01*
X111628753Y-72363676D01*
X111659271Y-72290000D01*
X114223000Y-72290000D01*
X114223000Y-76935000D01*
X111659271Y-76935000D01*
X111628753Y-76861324D01*
X111488125Y-76650860D01*
X111309140Y-76471875D01*
X111098676Y-76331247D01*
X110864821Y-76234381D01*
X110616561Y-76185000D01*
X110363439Y-76185000D01*
X110115179Y-76234381D01*
X109881324Y-76331247D01*
X109670860Y-76471875D01*
X109491875Y-76650860D01*
X109351247Y-76861324D01*
X109254381Y-77095179D01*
X109205000Y-77343439D01*
X109205000Y-77596561D01*
X109254381Y-77844821D01*
X109351247Y-78078676D01*
X109491875Y-78289140D01*
X109670860Y-78468125D01*
X109881324Y-78608753D01*
X110115179Y-78705619D01*
X110363439Y-78755000D01*
X110616561Y-78755000D01*
X110864821Y-78705619D01*
X111098676Y-78608753D01*
X111309140Y-78468125D01*
X111488125Y-78289140D01*
X111628753Y-78078676D01*
X111659271Y-78005000D01*
X114372204Y-78005000D01*
X114432062Y-78077938D01*
X114511449Y-78143089D01*
X114602021Y-78191500D01*
X114700296Y-78221312D01*
X114802500Y-78231378D01*
X115377500Y-78231378D01*
X115479704Y-78221312D01*
X115577979Y-78191500D01*
X115668551Y-78143089D01*
X115747938Y-78077938D01*
X115813089Y-77998551D01*
X115861500Y-77907979D01*
X115891312Y-77809704D01*
X115901378Y-77707500D01*
X115901378Y-77547000D01*
X116028622Y-77547000D01*
X116028622Y-77707500D01*
X116038688Y-77809704D01*
X116068500Y-77907979D01*
X116116911Y-77998551D01*
X116182062Y-78077938D01*
X116261449Y-78143089D01*
X116352021Y-78191500D01*
X116450296Y-78221312D01*
X116552500Y-78231378D01*
X117127500Y-78231378D01*
X117229704Y-78221312D01*
X117327979Y-78191500D01*
X117418551Y-78143089D01*
X117497938Y-78077938D01*
X117563089Y-77998551D01*
X117611500Y-77907979D01*
X117641312Y-77809704D01*
X117651378Y-77707500D01*
X117651378Y-77232500D01*
X117641312Y-77130296D01*
X117611500Y-77032021D01*
X117563089Y-76941449D01*
X117497938Y-76862062D01*
X117418551Y-76796911D01*
X117375000Y-76773633D01*
X117375000Y-75630998D01*
X117399103Y-75618115D01*
X117442500Y-75582500D01*
X117478115Y-75539103D01*
X117504579Y-75489592D01*
X117512039Y-75465000D01*
X119318633Y-75465000D01*
X119341911Y-75508551D01*
X119407062Y-75587938D01*
X119486449Y-75653089D01*
X119577021Y-75701500D01*
X119675296Y-75731312D01*
X119777500Y-75741378D01*
X120252500Y-75741378D01*
X120354704Y-75731312D01*
X120452979Y-75701500D01*
X120543551Y-75653089D01*
X120622938Y-75587938D01*
X120688089Y-75508551D01*
X120736500Y-75417979D01*
X120766312Y-75319704D01*
X120776378Y-75217500D01*
X120776378Y-74642500D01*
X120766312Y-74540296D01*
X120736500Y-74442021D01*
X120727000Y-74424247D01*
X120727000Y-73685753D01*
X120736500Y-73667979D01*
X120766312Y-73569704D01*
X120776378Y-73467500D01*
X120776378Y-72892500D01*
X120766312Y-72790296D01*
X120736500Y-72692021D01*
X120688089Y-72601449D01*
X120622938Y-72522062D01*
X120550000Y-72462204D01*
X120550000Y-72416275D01*
X120552588Y-72390000D01*
X120542258Y-72285122D01*
X120511667Y-72184273D01*
X120474490Y-72114722D01*
X120461988Y-72091332D01*
X120395132Y-72009868D01*
X120374721Y-71993117D01*
X119776887Y-71395284D01*
X119760132Y-71374868D01*
X119678668Y-71308012D01*
X119585726Y-71258333D01*
X119484878Y-71227742D01*
X119406275Y-71220000D01*
X119406268Y-71220000D01*
X119380000Y-71217413D01*
X119353732Y-71220000D01*
X115596268Y-71220000D01*
X115570000Y-71217413D01*
X115543732Y-71220000D01*
X111659271Y-71220000D01*
X111628753Y-71146324D01*
X111488125Y-70935860D01*
X111309140Y-70756875D01*
X111098676Y-70616247D01*
X110864821Y-70519381D01*
X110616561Y-70470000D01*
X110363439Y-70470000D01*
X110115179Y-70519381D01*
X109881324Y-70616247D01*
X109670860Y-70756875D01*
X109491875Y-70935860D01*
X109351247Y-71146324D01*
X109254381Y-71380179D01*
X109205000Y-71628439D01*
X108908895Y-71628439D01*
X108926834Y-71445487D01*
X109016724Y-71147759D01*
X109162729Y-70873163D01*
X109359289Y-70632157D01*
X109598919Y-70433917D01*
X109872488Y-70285999D01*
X110169579Y-70194034D01*
X110493387Y-70160000D01*
X116826191Y-70160000D01*
X117684475Y-70236600D01*
G37*
%TD.AperFunction*%
M02*
